<svg width="52" height="52" viewBox="0 0 52 52" fill="none" xmlns="http://www.w3.org/2000/svg">
<circle cx="26" cy="26" r="25.5" stroke="#C3C3C3"/>
<g clip-path="url(#clip0_450_566)">
<path d="M37.094 23.9137L27.3042 23.9132C26.8719 23.9132 26.5215 24.2636 26.5215 24.6958V27.8231C26.5215 28.2553 26.8719 28.6057 27.3041 28.6057H32.8172C32.2135 30.1723 31.0867 31.4843 29.6492 32.3179L32 36.3871C35.7708 34.2063 38.0002 30.38 38.0002 26.0966C38.0002 25.4868 37.9553 25.0508 37.8653 24.5598C37.797 24.1869 37.4732 23.9137 37.094 23.9137Z" fill="#167EE6"/>
<path d="M25.9997 33.3044C23.3018 33.3044 20.9465 31.8304 19.6815 29.6492L15.6123 31.9945C17.6831 35.5834 21.5624 38.0001 25.9997 38.0001C28.1766 38.0001 30.2306 37.414 32 36.3927V36.3871L29.6493 32.3179C28.574 32.9415 27.3297 33.3044 25.9997 33.3044Z" fill="#12B347"/>
<path d="M32.0003 36.3924V36.3868L29.6495 32.3176C28.5743 32.9412 27.33 33.3042 26 33.3042V37.9999C28.1768 37.9999 30.2309 37.4138 32.0003 36.3924Z" fill="#0F993E"/>
<path d="M18.6959 26C18.6959 24.6702 19.0588 23.4261 19.6823 22.351L15.6131 20.0056C14.5861 21.7694 14 23.8177 14 26C14 28.1823 14.5861 30.2307 15.6131 31.9945L19.6823 29.6491C19.0588 28.5739 18.6959 27.3298 18.6959 26Z" fill="#FFD500"/>
<path d="M25.9997 18.6957C27.7591 18.6957 29.3751 19.3208 30.6374 20.3606C30.9488 20.6171 31.4014 20.5986 31.6866 20.3134L33.9025 18.0976C34.2261 17.774 34.2031 17.2442 33.8574 16.9443C31.7425 15.1097 28.9908 14 25.9997 14C21.5624 14 17.6831 16.4167 15.6123 20.0056L19.6815 22.3509C20.9465 20.1697 23.3018 18.6957 25.9997 18.6957Z" fill="#FF4B26"/>
<path d="M30.6376 20.3606C30.949 20.6171 31.4017 20.5986 31.6869 20.3134L33.9028 18.0976C34.2264 17.774 34.2033 17.2442 33.8576 16.9443C31.7428 15.1096 28.9911 14 26 14V18.6957C27.7593 18.6957 29.3754 19.3208 30.6376 20.3606Z" fill="#D93F21"/>
</g>
<defs>
<clipPath id="clip0_450_566">
<rect width="24" height="24" fill="white" transform="translate(14 14)"/>
</clipPath>
</defs>
</svg>
